<svg height="56.015" width="70.001" xmlns="http://www.w3.org/2000/svg"><path d="m-52.319521 757.34715c-.69723-.3474-1.25675-.9826-1.54676-1.7558-.0999-.2663-.14403-8.3338-.14195-25.949.003-24.5361.0132-25.585.25594-26.1195.30751-.677 1.26315-1.5234 1.92882-1.7083.31695-.088 11.9359-.1352 32.96019-.1337 31.11638 0 32.49358.013 33.01986.2523.70173.3196 1.51947 1.2248 1.71437 1.8978.10883.3758.14015 7.7648.11104 26.1979l-.0405 25.6745-.37862.5824c-.20824.3204-.64073.7528-.96108.96111l-.58245.37859-32.81961.035-32.8196.035-.6996-.3486zm30.95254-3.3372c.20711-.1314 2.25367-6.1877 2.1485-6.3579-.0401-.065-.28865-.1179-.55234-.1179-.57687 0-.56627-.021-1.50733 3.0548-.36381 1.1894-.69526 2.1617-.73654 2.1608-.0413 0-.37552-.974-.74274-2.1624-.95542-3.092-.93603-3.0532-1.52638-3.0532-.30559 0-.52111.076-.56913.20141-.0919.23959 1.84444 6.13779 2.06295 6.28379.20257.1352 1.20557.1287 1.42301-.01zm4.11387 0c.12156-.077.17898-.8513.20595-2.7765l.0374-2.6694.87759 2.5823c.48267 1.4203.9659 2.6707 1.07385 2.7786.24205.2421.73942.2541 1.02233.025.11642-.094.60705-1.2989 1.0903-2.6767.48324-1.3778.92362-2.5054.97862-2.5057.055 0 .11679 1.1888.1373 2.6424l.0373 2.6429h.48054.48054v-3.1578-3.1578h-.96108-.96108l-.75657 1.9908c-.41611 1.0949-.80816 2.1144-.87122 2.2654-.0904.2164-.25726-.118-.78783-1.5789-1.07659-2.9643-.91521-2.746-2.02961-2.746-.73835 0-.96708.048-1.03195.2172-.0458.1195-.0833 1.5353-.0833 3.1464 0 2.2149.0418 2.9461.17162 2.9985.26687.1076.70354.098.88936-.02zm9.5108599-14.2837v-.6654l-1.93659-.092c-2.9465399-.1407-3.9095399-.4288-4.3193299-1.2924-.21018-.4429-.21755-.6188-.0672-1.60259.0929-.6078.23283-1.18231.31094-1.27671.1089-.1316 1.31822-.1716 5.1866699-.1716 4.80777 0 5.06077-.013 5.38782-.26999.18875-.14851.41454-.44221.50176-.65281.11608-.2802.14866-3.0196.12156-10.22219l-.037-9.83941-.33304-.3545c-.18318-.1949-.55388-.4158-.82379-.4908-.68197-.18939-27.4986799-.1854-28.1815199 0-.27832.077-.66447.3288-.8581.5589l-.35207.4185v9.9572 9.9572l.46681.4668.46681.4668h5.02023c5.81952 0 5.28735-.1608 5.39675 1.6307.0779 1.2759-.18757 1.8144-1.09177 2.2144-.59576.2635-2.79429.5484-4.23232.5484h-.80924v.6865.6864h10.09131 10.0913099v-.6653zm-23.3404399-16.0856v-8.9249l13.21481.035 13.2148099.035.0353 8.8899.0353 8.89h-13.2501399-13.25013v-8.925zm13.18001 3.7421-.00041-2.849-1.75006-.9945c-.96253-.547-2.07442-1.1815-2.47086-1.4101l-.72081-.4155.005 2.8517.005 2.8517 2.43153 1.39911c1.33734.76959 2.44698 1.40289 2.46586 1.40729.0189 0 .0341-1.2738.0338-2.8407zm3.4461 1.3756 2.32084-1.3359v-2.783c0-1.5306-.0343-2.7829-.0761-2.7829-.0419 0-1.12214.6024-2.40057 1.3386l-2.32444 1.3386-.002 2.7803c-.001 1.5292.0347 2.7803.0797 2.7803s1.12623-.6012 2.40269-1.336zm-.56134-6.4556c1.28009-.7363 2.32869-1.3787 2.33022-1.4276.004-.1126-4.5428-2.7599-4.75103-2.7665-.26809-.01-4.85996 2.7016-4.75304 2.8052.15571.151 4.61772 2.7119 4.73961 2.7202.0587 0 1.15415-.5951 2.43424-1.3313z" fill="#00bcf2" transform="translate(54.008 -701.681)"/></svg>